<svg xmlns="http://www.w3.org/2000/svg" viewBox="0 0 64 64">
  <defs>
    <linearGradient id="bg" x1="0%" y1="0%" x2="100%" y2="100%">
      <stop offset="0%" stop-color="#16313f" />
      <stop offset="100%" stop-color="#3ca69f" />
    </linearGradient>
    <linearGradient id="rocket" x1="0%" y1="0%" x2="100%" y2="100%">
      <stop offset="0%" stop-color="#fff3df" />
      <stop offset="100%" stop-color="#ffd18a" />
    </linearGradient>
  </defs>
  <rect width="64" height="64" rx="18" fill="url(#bg)" />
  <path
    d="M33 10c6 4 10 10 11 18l5 5c1 1 1 2 0 3l-3 3c-1 1-2 1-3 0l-5-5c-8-1-14-5-18-11 2-4 6-8 13-13z"
    fill="url(#rocket)"
  />
  <circle cx="34" cy="24" r="4" fill="#16313f" opacity="0.8" />
  <path d="M23 40l7-1-6 6c-1 1-2 1-3 0s-1-2 0-3l2-2z" fill="#ff8c61" />
  <path d="M41 22l2-8 5 5-8 3z" fill="#ff8c61" />
  <path d="M28 44c3 1 6 1 8 0-1 5-4 8-4 8s-3-3-4-8z" fill="#fff3df" />
</svg>
